<svg enable-background="new 0 0 64 64" viewBox="0 0 64 64" xmlns="http://www.w3.org/2000/svg"><g id="Layer_1" display="none"><g display="inline" fill="none" stroke="#b3b3b3" stroke-miterlimit="10" stroke-width=".1"><path d="m2 2h60v60h-60z"/><path d="m32 2v60"/><path d="m62 32h-60"/><path d="m2 2 60 60"/><path d="m10 10h44v44h-44z"/><path d="m62 2-60 60"/><path d="m2 32 30-30"/><path d="m32 2 30 30"/><path d="m62 32-30 30"/><path d="m32 62-30-30"/><circle cx="32" cy="32" r="21"/></g></g><g id="Layer_2"><path d="m59 2h-54c-1.7 0-3 1.3-3 3v54c0 1.7 1.3 3 3 3h54c1.7 0 3-1.3 3-3v-54c0-1.7-1.3-3-3-3zm-7 2c1.1 0 2 .9 2 2s-.9 2-2 2-2-.9-2-2 .9-2 2-2zm-6 0c1.1 0 2 .9 2 2s-.9 2-2 2-2-.9-2-2 .9-2 2-2zm14 55c0 .6-.4 1-1 1h-54c-.6 0-1-.4-1-1v-49h56zm-2-51c-1.1 0-2-.9-2-2s.9-2 2-2 2 .9 2 2-.9 2-2 2z"/><path d="m32 14c-11.6 0-21 9.4-21 21s9.4 21 21 21 21-9.4 21-21-9.4-21-21-21zm13 25h-26v-8h26z"/></g></svg>