<svg height="512" viewBox="0 0 64 64" width="512" xmlns="http://www.w3.org/2000/svg"><g id="bad_shop_rating" data-name="bad shop rating"><path d="m32 62.75a7.2 7.2 0 0 1 -7.36-6.65h-11.75a3.85 3.85 0 0 1 -3.84-3.85v-6.18a2.39 2.39 0 0 1 -2-2.34v-12.83a2.39 2.39 0 0 1 2-2.34v-2.77a5.69 5.69 0 0 1 -3.51-5.35v-5.69a.75.75 0 0 1 0-.26l2.6-7.66a5.7 5.7 0 0 1 5.69-5.58h36.27a5.71 5.71 0 0 1 5.7 5.57l2.57 7.58a.68.68 0 0 1 .09.35v5.66a5.9 5.9 0 0 1 -3.46 5.38v2.77a2.39 2.39 0 0 1 2 2.34v12.83a2.39 2.39 0 0 1 -2 2.34v6.18a3.85 3.85 0 0 1 -3.84 3.85h-11.79a7.47 7.47 0 0 1 -7.37 6.65zm-4.2-11.58c-3.26 3.57-1.66 9.83 4.2 10.08a5.82 5.82 0 0 0 4.14-1.73c5.36-5.77-2.57-13.52-8.34-8.35zm11.56 3.43h11.76a2.35 2.35 0 0 0 2.34-2.35v-6.15h-42.91v6.15a2.35 2.35 0 0 0 2.34 2.35h11.76c.84-8.73 13.75-8.86 14.71 0zm-29.9-24.6a.87.87 0 0 0 -.89.87v12.86a.87.87 0 0 0 .89.87h45.09a.87.87 0 0 0 .89-.87v-12.83a.87.87 0 0 0 -.89-.87zm1.09-1.5h42.91v-2.26a5.91 5.91 0 0 1 -6-2.91 6 6 0 0 1 -10.31 0 6 6 0 0 1 -10.27 0c-2.09 3.85-8.22 3.87-10.29 0a6 6 0 0 1 -6 2.88zm42-3.72a4.44 4.44 0 0 0 4.45-4.36v-4.92h-8.83v5a4.44 4.44 0 0 0 4.39 4.31zm-45.55-9.28v4.91a4.24 4.24 0 0 0 4.33 4.35 4.33 4.33 0 0 0 4.45-4.15v-5.11zm23 8.86a4.45 4.45 0 0 0 6.12-2.68c.33-.88.13-5.2.18-6.18h-8.69v4.85a4.4 4.4 0 0 0 2.47 4.01zm-10.35-.06a4.46 4.46 0 0 0 6.35-2.79c.26-.71.1-5.2.14-6h-8.81v4.91a4.32 4.32 0 0 0 2.32 3.88zm20.66.05a4.48 4.48 0 0 0 6.13-2.53c.41-.92.17-5.28.23-6.32h-8.79v4.91a4.44 4.44 0 0 0 2.43 3.94zm7.74-10.35h8.6l-2.14-6.3h-7.51zm-10.17 0h8.65l-1.07-6.3h-7.58zm-10.27 0h8.77v-6.3h-8.77zm-10.15 0h8.65v-6.3h-7.58zm-10.12 0h8.59l1.07-6.3h-7.52zm2.41-7.8h44.48a4.2 4.2 0 0 0 -4.13-3.45h-36.22a4.22 4.22 0 0 0 -4.13 3.45zm24.9 53.33a.76.76 0 0 1 -.73-.57 2 2 0 0 0 -3.84 0 .75.75 0 1 1 -1.46-.36 3.51 3.51 0 0 1 6.76 0 .75.75 0 0 1 -.73.93zm-.26-4.53a1.94 1.94 0 0 1 -2-1.94.75.75 0 0 1 1.5 0c0 .59 1.08.6 1.07 0a.75.75 0 0 1 1.5 0 1.94 1.94 0 0 1 -2.07 1.94zm-4.78 0a1.94 1.94 0 0 1 -2-1.94.75.75 0 0 1 1.5 0c0 .59 1.09.6 1.07 0a.75.75 0 0 1 1.5 0 1.94 1.94 0 0 1 -2.07 1.94zm20.6-11.87a1 1 0 0 1 -.58-.2l-2.63-1.93-2.6 1.9a1 1 0 0 1 -1.16 0 1 1 0 0 1 -.35-1.1l1-3.06-2.61-1.89a1 1 0 0 1 -.35-1.1 1 1 0 0 1 .93-.69h3.24l1-3.06a1 1 0 0 1 1.9 0l1 3.07h3.21a1 1 0 0 1 .59 1.79l-2.61 1.89 1 3.06a1 1 0 0 1 -.98 1.3zm-3.21-3.72c.44-.08 1.72 1.08 2.19 1.36a20.44 20.44 0 0 1 -.67-2.21 1 1 0 0 1 .46-.83l1.58-1.15c-3.08 0-2.56.42-3.56-2.58l-.62 1.91a1 1 0 0 1 -.94.68h-2l1.63 1.19a.94.94 0 0 1 .41.79c.06.12-.63 2-.66 2.21l1.61-1.18a1.19 1.19 0 0 1 .57-.19zm-12 3.7a1 1 0 0 1 -.59-.2l-2.59-1.91-2.61 1.9a1 1 0 0 1 -1.52-1.07l1-3.09-2.61-1.89a1 1 0 0 1 .58-1.79h3.22l1-3.06a1 1 0 0 1 .93-.68 1 1 0 0 1 .94.67l1 3.07h3.25a1 1 0 0 1 .58 1.79l-2.58 1.91 1 3.06a1 1 0 0 1 -1 1.29zm-4.71-4.55c.06.12-.64 2-.67 2.21 2.5-1.82 1.93-1.79 4.4 0a20.34 20.34 0 0 1 -.66-2.21 1 1 0 0 1 .46-.83l1.58-1.15c-3.12 0-2.61.37-3.58-2.59l-.62 1.91a1 1 0 0 1 -.93.68h-2l1.63 1.19a1 1 0 0 1 .39.79zm4.42.44h-.05zm-14.54 3.51a1 1 0 0 1 -.58-.19l-2.59-1.89-2.6 1.89a1 1 0 0 1 -1.16 0 1 1 0 0 1 -.36-1.1l1-3.07-2.61-1.89a1 1 0 0 1 .58-1.78h3.22l1-3.06a1 1 0 0 1 1.87 0l1 3.06h3.22a1 1 0 0 1 .58 1.78l-2.61 1.89 1 3.07a1 1 0 0 1 -.96 1.29zm-6.75-6.51 1.58 1.16a1 1 0 0 1 .36 1.1l-.62 1.91c2.51-1.82 1.9-1.81 4.41 0l-.62-1.91a1 1 0 0 1 .35-1.1l1.67-1.16h-2a1 1 0 0 1 -.94-.68l-.61-1.93-.62 1.91a1 1 0 0 1 -.93.68z"/></g></svg>