<svg height="512" viewBox="0 0 64 64" width="512" xmlns="http://www.w3.org/2000/svg"><g id="Layer_6" data-name="Layer 6"><path d="m59 50h-13v-15.25l6.42 5.25h-3.42a1 1 0 0 0 0 2h6a1 1 0 0 0 1-1v-6a1 1 0 0 0 -2 0v3.71l-21.37-17.48a1 1 0 0 0 -1.34.06l-7.29 7.3-12.29-12.3a1 1 0 0 0 -1.42 1.42l7.71 7.7v24.59h-12v-37a1 1 0 0 0 -2 0v38a1 1 0 0 0 1 1h54a1 1 0 0 0 0-2zm-15 0h-4.12l-.45-3.62a5 5 0 0 0 -3.62-4.18 5 5 0 0 0 -2.81-8.1v-10l11 9zm-15-11a3 3 0 1 1 3 3 3 3 0 0 1 -3-3zm-9-11.59 3.29 3.3a1 1 0 0 0 1.42 0l6.29-6.3v9.69a5 5 0 0 0 -2.81 8.1 5 5 0 0 0 -3.62 4.18l-.45 3.62h-4.12zm16 22.59v-3a1 1 0 0 0 -2 0v3h-4v-3a1 1 0 0 0 -2 0v3h-1.87l.42-3.37a3 3 0 0 1 3-2.63h4.94a3 3 0 0 1 3 2.63l.38 3.37z"/></g></svg>