<svg id="Layer_1" enable-background="new 0 0 100 100" viewBox="0 0 100 100" xmlns="http://www.w3.org/2000/svg"><g><g fill="rgb(0,0,0)"><path d="m86.505 2h-73.01c-5.85999 0-10.63 4.77002-10.63 10.63v56.64001c0 5.14996 4.96002 9.65997 10.63 9.65997h13.26c.26001.47998.52997.95001.82001 1.41003l-2.11005 3.5c-.58997 1.00995-.42999 2.27997.39001 3.10999l3.57001 3.57001c.83002.82996 2.10999 1 3.13.38995l3.5-2.08997c2.46002 1.53998 5.13 2.64001 7.95001 3.28998l.97998 3.92999c.27003 1.15004 1.28999 1.96004 2.47005 1.96004h5.07996c1.17999 0 2.20001-.81 2.47003-1.95001l.97998-3.94c2.82001-.64996 5.48999-1.76001 7.96002-3.28998l3.48999 2.08997c1 .61005 2.27997.44 3.09998-.38995l3.59003-3.57001c.83002-.82001.98999-2.09003.39001-3.10999l-2.11005-3.51001c.29004-.46002.56-.92999.81-1.40002h13.29003c5.65997 0 10.63-4.51001 10.63-9.65997 0-7.87271 0-51.05394 0-56.64001.00001-5.86-4.77001-10.63002-10.63-10.63002zm-81.64001 10.63c0-4.76001 3.87-8.63 8.63-8.63h73.01001c4.76001 0 8.63 3.87 8.63 8.63v5.82001h-90.27001zm67.92999 72.22999c.13.22003.09998.5-.07001.67004l-3.59997 3.57996c-.19.19-.44.22003-.66003.09003l-4.01996-2.41998c-.33002-.19-.75-.19-1.07001.01996-2.58002 1.69-5.41003 2.85999-8.41998 3.48999-.37006.08002-.67004.36005-.76001.73004l-1.14001 4.56c-.06.24999-.27003.41997-.52003.41997h-5.07996c-.25 0-.46002-.16998-.52002-.42999l-1.14001-4.54999c-.08997-.37-.39001-.66003-.77002-.73004-3.00995-.62-5.82995-1.78998-8.39996-3.47998-.16998-.10999-.35999-.16998-.54999-.16998-.18005 0-.36005.04999-.52002.14001l-4.02002 2.40997c-.22998.14001-.5.10999-.69-.08002l-3.57001-3.57996c-.17999-.17003-.20996-.46001-.08996-.66002l2.42999-4.02997c.19-.33002.19-.75-.03003-1.07001-1.6966-2.63954-2.85372-5.34227-3.5-8.40002-.07996-.38-.35999-.67999-.72998-.77002l-4.57001-1.14996c-.22998-.06-.39001-.27002-.39001-.53003v-5.06c0-.25.16003-.46997.41003-.52997l4.54999-1.15002c.37-.08997.65002-.39001.72998-.76001.63-3.01001 1.81-5.83997 3.5-8.39996.22003-.32001.22003-.73999.03003-1.07001l-2.42999-4.03004c-.12-.20996-.09003-.48999.08997-.66998l3.56-3.58002c.19-.17999.47003-.21997.69-.07996l4.03003 2.41998c.33002.19.73999.19 1.07001-.02002 2.57001-1.70001 5.39996-2.87 8.39996-3.48999.38-.08002.68005-.37.77002-.73999l1.14001-4.57c.06-.22998.27002-.40002.52002-.40002h5.07996c.25 0 .47003.17004.52002.41003l1.14001 4.56c.08997.37.38995.65997.76996.73999 2.99005.62 5.82001 1.78998 8.40002 3.48999.32001.21002.72998.21002 1.06.02002l4.03998-2.42999c.22003-.13.48004-.09003.66003.07996l3.59998 3.60004c.16998.16998.20001.45001.07001.66998l-2.42999 4.02002c-.20001.33002-.19.75.02002 1.07001 1.70996 2.57996 2.88 5.40997 3.5 8.38995.07996.38.35999.68005.72998.77002l4.57001 1.15002c0 .01001.01001.01001.01001.01001.23999.04999.40997.26996.40997.51996v5.06c0 .25-.16998.47003-.41998.53003l-4.57001 1.14996c-.37.09003-.65002.39001-.72998.77002-.39001 1.92999-1.03003 3.78998-1.89001 5.56-.33002.67999-.69 1.35004-1.08002 2-.16998.28003-.34998.56-.52997.83002-.21002.32001-.22003.72998-.02002 1.06zm22.34003-15.58997c0 3.62-3.69 7.65997-8.63 7.65997h-12.31c.64996-1.46002 1.14996-2.97998 1.51001-4.53998l3.94995-1c1.15002-.27002 1.95001-1.29004 1.95001-2.47003v-5.06c0-1.17999-.79999-2.19-1.94-2.46997l-3.95996-1c-.65002-2.79999-1.75-5.47003-3.30005-7.94l2.11005-3.5c.59998-1.02002.44-2.29999-.38-3.10999l-3.61005-3.60004c-.82996-.81-2.09998-.96997-3.08997-.37l-3.5 2.09998c-2.47003-1.53998-5.14001-2.63995-7.95001-3.29999l-.97999-3.95c-.28003-1.12994-1.29004-1.92999-2.47003-1.92999h-5.07996c-1.18005 0-2.19.80005-2.46002 1.92999l-.98999 3.95001c-2.82001.66003-5.48004 1.76001-7.95001 3.29999l-3.5-2.09998c-1-.58997-2.28003-.44-3.12.38l-3.58002 3.59003c-.82001.81995-.97998 2.09998-.39001 3.10999l2.11005 3.5c-1.54004 2.45996-2.65002 5.12-3.31 7.94l-3.94 1c-1.14001.26996-1.93005 1.28998-1.93005 2.46997v5.06c0 1.19.80005 2.20001 1.92004 2.47003l3.95001 1c.37 1.56.87 3.07996 1.51996 4.53998h-12.28997c-4.94 0-8.63-4.03998-8.63-7.65997v-48.82001h90.27002v48.82001z"/><path d="m13.64374 29.68884h15.70508c.55273 0 1-.44727 1-1s-.44727-1-1-1h-15.70508c-.55273 0-1 .44727-1 1s.44726 1 1 1z"/><path d="m13.64374 36.21033h15.70508c.55273 0 1-.44727 1-1s-.44727-1-1-1h-15.70508c-.55273 0-1 .44727-1 1s.44726 1 1 1z"/><path d="m70.65057 29.68884h15.7041c.55273 0 1-.44727 1-1s-.44727-1-1-1h-15.7041c-.55273 0-1 .44727-1 1s.44727 1 1 1z"/><path d="m70.65057 36.21033h15.7041c.55273 0 1-.44727 1-1s-.44727-1-1-1h-15.7041c-.55273 0-1 .44727-1 1s.44727 1 1 1z"/><path d="m15.57501 7.47998c-2.28003 0-4.13 1.86005-4.13 4.13 0 2.28003 1.84998 4.13 4.13 4.13 2.27997 0 4.13995-1.84998 4.13995-4.13.00001-2.26995-1.85998-4.13-4.13995-4.13zm0 6.26001c-1.17004 0-2.13-.95996-2.13-2.13 0-1.16998.95996-2.13 2.13-2.13 1.17999 0 2.13995.96002 2.13995 2.13.00001 1.17004-.95996 2.13-2.13995 2.13z"/><path d="m28.46497 7.47998c-2.27997 0-4.13 1.86005-4.13 4.13 0 2.28003 1.85004 4.13 4.13 4.13 2.28003 0 4.13-1.84998 4.13-4.13 0-2.26995-1.84997-4.13-4.13-4.13zm0 6.26001c-1.17999 0-2.13-.95996-2.13-2.13 0-1.16998.95001-2.13 2.13-2.13 1.17004 0 2.13.96002 2.13 2.13 0 1.17004-.95996 2.13-2.13 2.13z"/><path d="m41.34497 7.47998c-2.27997 0-4.13 1.86005-4.13 4.13 0 2.28003 1.85004 4.13 4.13 4.13 2.28003 0 4.13-1.84998 4.13-4.13.00001-2.26995-1.84997-4.13-4.13-4.13zm0 6.26001c-1.16998 0-2.13-.95996-2.13-2.13 0-1.16998.96002-2.13 2.13-2.13 1.17999 0 2.13.96002 2.13 2.13.00001 1.17004-.95001 2.13-2.13 2.13z"/><path d="m49.995 48.65002c-10.19803 0-17.63573 8.26939-17.73999 17.53998v.19c0 9.86211 7.97761 17.75 17.75 17.75 10.14158-.02051 17.72998-8.28799 17.72998-17.75v-.20001c0-9.09245-5.64416-16.2999-17.73999-17.52997zm15.69 16.53998h-5.02002c-.08997 0-.15997-.07001-.16998-.15997-.26001-2.02002-1.10999-3.94-2.42999-5.49005l3.64996-3.65998c2.0445 2.18009 3.68104 5.55295 3.97003 9.31zm-5.40003-10.71002v.01001l-3.64996 3.65002c-1.62-1.29999-3.57001-2.10004-5.64001-2.29004v-5.15997c3.40301.19161 6.81214 1.61236 9.28997 3.78998zm-11.28997-3.78998v5.15997c-2.06.19-4.01001.98004-5.63 2.29004l-3.65997-3.66003c2.90343-2.51094 6.70933-3.78998 9.28997-3.78998zm-10.72004 5.19 3.66003 3.65997c-1.32 1.55006-2.16998 3.46003-2.42999 5.49006-.01.08997-.08001.15997-.17004.15997h-5.02997c.27586-3.58565 1.70595-6.77148 3.96997-9.31zm11.72004 26.25c-8.48185 0-15.29851-6.64287-15.72003-14.94h5.06c1.09003 0 2.01001-.82001 2.15002-1.90997.25-1.91003 1.15002-3.70001 2.53003-5.05005 1.60999-1.56 3.70996-2.41998 5.94-2.42999h.07996c2.23999.01001 4.34003.88 5.94 2.42999 1.39001 1.35004 2.29004 3.14001 2.54004 5.05005.12994 1.08997 1.06 1.90997 2.14996 1.90997h5.04999c-.4212 8.26862-7.21326 14.91629-15.71997 14.94z"/><path d="m53.005 72.97998h-6.01c-.97003 0-1.76001.79004-1.76001 1.75v1.96002c0 .08002.01001.15997.03003.23999.10998.85004.83996 1.51001 1.72998 1.51001h6.01c.88995 0 1.60999-.65997 1.71997-1.51001.02003-.08001.03003-.15997.03003-.23999v-1.96002c0-.95996-.78002-1.75-1.75-1.75zm-.25 3.46002h-5.52002v-1.46002h5.52002z"/><path d="m49.995 70.27002c1.72998 0 3.13-1.41003 3.13-3.13 0-1.37836-.88812-2.54688-2.12579-2.95825v-3.15894c0-.55273-.44727-1-1-1s-1 .44727-1 1v3.15607c-.00134.00049-.00287.00061-.00421.0011-1.22998.41003-2.12 1.58002-2.12 2.96002 0 1.71997 1.39996 3.13 3.12 3.13zm0-4.26001c.63 0 1.13.51001 1.13 1.13s-.5 1.13-1.13 1.13c-.62 0-1.12-.51001-1.12-1.13s.5-1.13 1.12-1.13z"/></g><g><g><path d="m72.60663 8.76892h-12.19824c-.55273 0-1-.44727-1-1s.44727-1 1-1h12.19824c.55273 0 1 .44727 1 1s-.44727 1-1 1z" fill="rgb(0,0,0)"/></g><g><path d="m56.49823 8.76892h-.84766c-.55273 0-1-.44727-1-1s.44727-1 1-1h.84766c.55273 0 1 .44727 1 1s-.44727 1-1 1z" fill="rgb(0,0,0)"/></g></g></g></svg>