<svg enable-background="new 0 0 64 64" height="512" viewBox="0 0 64 64" width="512" xmlns="http://www.w3.org/2000/svg"><g id="Outline"><g><path d="m43.54 59.5h-23.08c-.965 0-1.75-.785-1.75-1.75s.785-1.75 1.75-1.75h20.15c.276 0 .5.224.5.5s-.224.5-.5.5h-20.15c-.414 0-.75.337-.75.75s.336.75.75.75h23.08c.048-.014.102-.021.156-.021.154-.029.318.015.439.13.2.19.207.507.017.707-.088.092-.213.148-.34.158-.086.017-.177.026-.272.026z"/></g><g><path d="m37.286 57h-10.857c-.155 0-.301-.072-.396-.194-.094-.123-.127-.282-.088-.433l1.214-4.643c.058-.22.256-.373.484-.373h8.428c.228 0 .426.153.484.373l1.214 4.643c.039.15.006.31-.088.433-.094.122-.241.194-.395.194zm-10.21-1h9.562l-.953-3.643h-7.656z"/></g><g><path d="m40.56 52.36h-31.56c-2.481 0-4.5-2.019-4.5-4.5v-31.19c0-2.481 2.019-4.5 4.5-4.5h24.34c.276 0 .5.224.5.5s-.224.5-.5.5h-24.34c-1.93 0-3.5 1.57-3.5 3.5v31.19c0 1.93 1.57 3.5 3.5 3.5h31.56c.276 0 .5.224.5.5s-.224.5-.5.5z"/></g><g><path d="m58.45 50.37c-.086 0-.174-.022-.254-.07-.238-.141-.316-.447-.175-.685.314-.529.48-1.137.48-1.755v-31.19c0-.276.224-.5.5-.5s.5.224.5.5v31.19c0 .798-.214 1.581-.62 2.265-.094.157-.26.245-.431.245z"/></g><g><path d="m40.96 45.53h-31.96c-1.378 0-2.5-1.121-2.5-2.5v-26.36c0-1.379 1.122-2.5 2.5-2.5h24.34c.276 0 .5.224.5.5s-.224.5-.5.5h-24.34c-.827 0-1.5.673-1.5 1.5v26.36c0 .827.673 1.5 1.5 1.5h31.96c.276 0 .5.224.5.5s-.224.5-.5.5z"/></g><g><path d="m57 37.73c-.276 0-.5-.224-.5-.5v-16.31c0-.276.224-.5.5-.5s.5.224.5.5v16.31c0 .277-.224.5-.5.5z"/></g><g><g><path d="m33.34 16.795h-.5c-.069 0-.125-.056-.125-.125s.056-.125.125-.125h.5c.069 0 .125.056.125.125s-.056.125-.125.125z"/></g><g><path d="m39.562 43.155h-1c-.069 0-.125-.056-.125-.125s.056-.125.125-.125h1c.069 0 .125.056.125.125s-.057.125-.125.125zm-2 0h-1c-.069 0-.125-.056-.125-.125s.056-.125.125-.125h1c.069 0 .125.056.125.125s-.057.125-.125.125zm-2 0h-1c-.069 0-.125-.056-.125-.125s.056-.125.125-.125h1c.069 0 .125.056.125.125s-.057.125-.125.125zm-2 0h-1c-.069 0-.125-.056-.125-.125s.056-.125.125-.125h1c.069 0 .125.056.125.125s-.057.125-.125.125zm-2 0h-1c-.069 0-.125-.056-.125-.125s.056-.125.125-.125h1c.069 0 .125.056.125.125s-.057.125-.125.125zm-2 0h-1c-.069 0-.125-.056-.125-.125s.056-.125.125-.125h1c.069 0 .125.056.125.125s-.057.125-.125.125zm-2.001 0h-1c-.069 0-.125-.056-.125-.125s.056-.125.125-.125h1c.069 0 .125.056.125.125s-.056.125-.125.125zm-2 0h-1c-.069 0-.125-.056-.125-.125s.056-.125.125-.125h1c.069 0 .125.056.125.125s-.056.125-.125.125zm-2 0h-1c-.069 0-.125-.056-.125-.125s.056-.125.125-.125h1c.069 0 .125.056.125.125s-.056.125-.125.125zm-2 0h-1c-.069 0-.125-.056-.125-.125s.056-.125.125-.125h1c.069 0 .125.056.125.125s-.056.125-.125.125zm-2 0h-1c-.069 0-.125-.056-.125-.125s.056-.125.125-.125h1c.069 0 .125.056.125.125s-.056.125-.125.125zm-2 0h-1c-.069 0-.125-.056-.125-.125s.056-.125.125-.125h1c.069 0 .125.056.125.125s-.056.125-.125.125zm-2 0h-1c-.069 0-.125-.056-.125-.125s.056-.125.125-.125h1c.069 0 .125.056.125.125s-.056.125-.125.125zm-2 0h-1c-.069 0-.125-.056-.125-.125s.056-.125.125-.125h1c.069 0 .125.056.125.125s-.056.125-.125.125zm-2 0h-1c-.069 0-.125-.056-.125-.125s.056-.125.125-.125h1c.069 0 .125.056.125.125s-.056.125-.125.125zm-1.993-.059c-.015 0-.03-.003-.045-.009-.361-.14-.614-.48-.645-.867-.005-.068.046-.129.115-.135.075-.004.129.047.134.115.023.291.214.548.486.654.064.024.096.097.071.161-.018.05-.066.081-.116.081zm-.568-1.761c-.069 0-.125-.056-.125-.125v-1c0-.069.056-.125.125-.125s.125.056.125.125v1c0 .069-.056.125-.125.125zm0-2c-.069 0-.125-.056-.125-.125v-1c0-.069.056-.125.125-.125s.125.056.125.125v1c0 .069-.056.125-.125.125zm0-2c-.069 0-.125-.056-.125-.125v-1c0-.069.056-.125.125-.125s.125.056.125.125v1c0 .069-.056.125-.125.125zm0-2c-.069 0-.125-.056-.125-.125v-1c0-.069.056-.125.125-.125s.125.056.125.125v1c0 .069-.056.125-.125.125zm0-2c-.069 0-.125-.056-.125-.125v-1c0-.069.056-.125.125-.125s.125.056.125.125v1c0 .069-.056.125-.125.125zm0-2c-.069 0-.125-.056-.125-.125v-1c0-.069.056-.125.125-.125s.125.056.125.125v1c0 .069-.056.125-.125.125zm0-2c-.069 0-.125-.056-.125-.125v-1c0-.069.056-.125.125-.125s.125.056.125.125v1c0 .069-.056.125-.125.125zm0-2c-.069 0-.125-.056-.125-.125v-1c0-.069.056-.125.125-.125s.125.056.125.125v1c0 .069-.056.125-.125.125zm0-2c-.069 0-.125-.056-.125-.125v-1c0-.069.056-.125.125-.125s.125.056.125.125v1c0 .069-.056.125-.125.125zm0-2c-.069 0-.125-.056-.125-.125v-1c0-.069.056-.125.125-.125s.125.056.125.125v1c0 .069-.056.125-.125.125zm0-2c-.069 0-.125-.056-.125-.125v-1c0-.069.056-.125.125-.125s.125.056.125.125v1c0 .069-.056.125-.125.125zm0-2c-.069 0-.125-.056-.125-.125v-1c0-.069.056-.125.125-.125s.125.056.125.125v1c0 .069-.056.125-.125.125zm.066-1.99c-.016 0-.032-.003-.048-.01-.064-.026-.094-.1-.068-.163.15-.361.497-.607.883-.626.072.007.127.05.131.119.003.068-.05.127-.119.131-.29.014-.551.199-.664.472-.019.047-.066.077-.115.077zm22.774-.55h-1c-.069 0-.125-.056-.125-.125s.056-.125.125-.125h1c.069 0 .125.056.125.125s-.056.125-.125.125zm-2 0h-1c-.069 0-.125-.056-.125-.125s.056-.125.125-.125h1c.069 0 .125.056.125.125s-.056.125-.125.125zm-2 0h-1c-.069 0-.125-.056-.125-.125s.056-.125.125-.125h1c.069 0 .125.056.125.125s-.056.125-.125.125zm-2 0h-1c-.069 0-.125-.056-.125-.125s.056-.125.125-.125h1c.069 0 .125.056.125.125s-.056.125-.125.125zm-2 0h-1c-.069 0-.125-.056-.125-.125s.056-.125.125-.125h1c.069 0 .125.056.125.125s-.056.125-.125.125zm-2 0h-1c-.069 0-.125-.056-.125-.125s.056-.125.125-.125h1c.069 0 .125.056.125.125s-.056.125-.125.125zm-2 0h-1c-.069 0-.125-.056-.125-.125s.056-.125.125-.125h1c.069 0 .125.056.125.125s-.056.125-.125.125zm-2 0h-1c-.069 0-.125-.056-.125-.125s.056-.125.125-.125h1c.069 0 .125.056.125.125s-.056.125-.125.125zm-2 0h-1c-.069 0-.125-.056-.125-.125s.056-.125.125-.125h1c.069 0 .125.056.125.125s-.056.125-.125.125zm-2 0h-1c-.069 0-.125-.056-.125-.125s.056-.125.125-.125h1c.069 0 .125.056.125.125s-.056.125-.125.125zm-2 0h-1c-.069 0-.125-.056-.125-.125s.056-.125.125-.125h1c.069 0 .125.056.125.125s-.056.125-.125.125z"/></g><g><path d="m41.08 43.155h-.5c-.069 0-.125-.056-.125-.125s.056-.125.125-.125h.5c.069 0 .125.056.125.125s-.056.125-.125.125z"/></g></g><g><g><path d="m55 36.985c-.069 0-.125-.056-.125-.125v-.5c0-.069.056-.125.125-.125s.125.056.125.125v.5c0 .07-.056.125-.125.125z"/></g><g><path d="m55 35.525c-.069 0-.125-.056-.125-.125v-.96c0-.069.056-.125.125-.125s.125.056.125.125v.96c0 .07-.056.125-.125.125zm0-1.92c-.069 0-.125-.056-.125-.125v-.96c0-.069.056-.125.125-.125s.125.056.125.125v.96c0 .07-.056.125-.125.125zm0-1.919c-.069 0-.125-.056-.125-.125v-.96c0-.069.056-.125.125-.125s.125.056.125.125v.96c0 .069-.056.125-.125.125zm0-1.92c-.069 0-.125-.056-.125-.125v-.96c0-.069.056-.125.125-.125s.125.056.125.125v.96c0 .069-.056.125-.125.125zm0-1.92c-.069 0-.125-.056-.125-.125v-.96c0-.069.056-.125.125-.125s.125.056.125.125v.96c0 .069-.056.125-.125.125zm0-1.92c-.069 0-.125-.056-.125-.125v-.96c0-.069.056-.125.125-.125s.125.056.125.125v.96c0 .069-.056.125-.125.125zm0-1.92c-.069 0-.125-.056-.125-.125v-.961c0-.069.056-.125.125-.125s.125.056.125.125v.961c0 .069-.056.125-.125.125z"/></g><g><path d="m55 22.085c-.069 0-.125-.056-.125-.125v-.5c0-.069.056-.125.125-.125s.125.056.125.125v.5c0 .069-.056.125-.125.125z"/></g></g><g><path d="m32 50.158c-1.013 0-1.837-.824-1.837-1.837 0-1.014.824-1.838 1.837-1.838s1.837.824 1.837 1.838c0 1.013-.824 1.837-1.837 1.837zm0-2.675c-.461 0-.837.376-.837.838s.375.837.837.837.837-.375.837-.837-.376-.838-.837-.838z"/></g><g><g><path d="m40.77 48.445h-.5c-.069 0-.125-.056-.125-.125s.056-.125.125-.125h.5c.069 0 .125.056.125.125s-.056.125-.125.125z"/></g><g><path d="m39.363 48.445h-.907c-.069 0-.125-.056-.125-.125s.056-.125.125-.125h.907c.069 0 .125.056.125.125s-.056.125-.125.125z"/></g><g><path d="m37.55 48.445h-.5c-.069 0-.125-.056-.125-.125s.056-.125.125-.125h.5c.069 0 .125.056.125.125s-.056.125-.125.125z"/></g></g><g><g><path d="m26.965 48.445h-.5c-.069 0-.125-.056-.125-.125s.056-.125.125-.125h.5c.069 0 .125.056.125.125s-.056.125-.125.125z"/></g><g><path d="m25.402 48.445h-1.063c-.069 0-.125-.056-.125-.125s.056-.125.125-.125h1.063c.069 0 .125.056.125.125s-.056.125-.125.125zm-2.126 0h-1.063c-.069 0-.125-.056-.125-.125s.056-.125.125-.125h1.063c.069 0 .125.056.125.125s-.056.125-.125.125zm-2.126 0h-1.063c-.069 0-.125-.056-.125-.125s.056-.125.125-.125h1.063c.069 0 .125.056.125.125s-.056.125-.125.125zm-2.126 0h-1.064c-.069 0-.125-.056-.125-.125s.056-.125.125-.125h1.063c.069 0 .125.056.125.125s-.055.125-.124.125zm-2.127 0h-1.063c-.069 0-.125-.056-.125-.125s.056-.125.125-.125h1.063c.069 0 .125.056.125.125s-.056.125-.125.125zm-2.126 0h-1.063c-.069 0-.125-.056-.125-.125s.056-.125.125-.125h1.063c.069 0 .125.056.125.125s-.056.125-.125.125zm-2.126 0h-1.063c-.069 0-.125-.056-.125-.125s.056-.125.125-.125h1.063c.069 0 .125.056.125.125s-.056.125-.125.125z"/></g><g><path d="m10.519 48.445h-.5c-.069 0-.125-.056-.125-.125s.056-.125.125-.125h.5c.069 0 .125.056.125.125s-.056.125-.125.125z"/></g></g><g><path d="m55 21.964h-17.663c-2.481 0-4.5-2.019-4.5-4.5v-7.464c0-.276.224-.5.5-.5h25.663c.276 0 .5.224.5.5v7.464c0 2.481-2.019 4.5-4.5 4.5zm-21.163-11.464v6.964c0 1.93 1.57 3.5 3.5 3.5h17.663c1.93 0 3.5-1.57 3.5-3.5v-6.964z"/></g><g><path d="m55 19.589h-.394c-.069 0-.125-.056-.125-.125s.056-.125.125-.125h.394c.189 0 .378-.028.56-.085.067-.021.136.017.156.082.021.066-.016.136-.082.156-.206.065-.419.097-.634.097zm-1.394 0h-1c-.069 0-.125-.056-.125-.125s.056-.125.125-.125h1c.069 0 .125.056.125.125s-.056.125-.125.125zm-2 0h-1c-.069 0-.125-.056-.125-.125s.056-.125.125-.125h1c.069 0 .125.056.125.125s-.056.125-.125.125zm-2 0h-1c-.069 0-.125-.056-.125-.125s.056-.125.125-.125h1c.069 0 .125.056.125.125s-.056.125-.125.125zm-2 0h-1c-.069 0-.125-.056-.125-.125s.056-.125.125-.125h1c.069 0 .125.056.125.125s-.056.125-.125.125zm-2 0h-1c-.069 0-.125-.056-.125-.125s.056-.125.125-.125h1c.069 0 .125.056.125.125s-.056.125-.125.125zm-2 0h-1c-.069 0-.125-.056-.125-.125s.056-.125.125-.125h1c.069 0 .125.056.125.125s-.056.125-.125.125zm-2 0h-1c-.069 0-.125-.056-.125-.125s.056-.125.125-.125h1c.069 0 .125.056.125.125s-.056.125-.125.125zm-2 0h-1c-.069 0-.125-.056-.125-.125s.056-.125.125-.125h1c.069 0 .125.056.125.125s-.056.125-.125.125zm-2 0h-.269c-.263 0-.518-.048-.76-.142-.064-.024-.096-.097-.071-.161s.096-.098.162-.071c.212.082.438.124.669.124h.269c.069 0 .125.056.125.125s-.056.125-.125.125zm18.832-.61c-.031 0-.062-.012-.087-.035-.05-.048-.051-.127-.003-.177.219-.227.378-.505.46-.806.018-.066.087-.109.154-.087.066.018.105.087.087.153-.094.341-.274.656-.522.913-.024.026-.057.039-.089.039zm-20.623-.094c-.035 0-.07-.015-.095-.044-.23-.271-.391-.598-.463-.943-.014-.067.029-.134.097-.147.069-.016.134.028.148.097.064.305.205.593.409.832.045.053.039.132-.014.177-.024.018-.053.028-.082.028zm21.185-1.76c-.069 0-.125-.056-.125-.125v-1c0-.069.056-.125.125-.125s.125.056.125.125v1c0 .069-.056.125-.125.125zm-21.663-.125c-.069 0-.125-.056-.125-.125v-1c0-.069.056-.125.125-.125s.125.056.125.125v1c0 .069-.056.125-.125.125zm21.663-1.875c-.069 0-.125-.056-.125-.125v-1c0-.069.056-.125.125-.125s.125.056.125.125v1c0 .069-.056.125-.125.125zm-21.663-.125c-.069 0-.125-.056-.125-.125v-1c0-.069.056-.125.125-.125s.125.056.125.125v1c0 .069-.056.125-.125.125zm21.663-1.875c-.069 0-.125-.056-.125-.125v-1c0-.069.056-.125.125-.125s.125.056.125.125v1c0 .069-.056.125-.125.125zm-21.663-.125c-.069 0-.125-.056-.125-.125v-1c0-.069.056-.125.125-.125s.125.056.125.125v1c0 .069-.056.125-.125.125zm21.663-1.875c-.069 0-.125-.056-.125-.125v-1c0-.069.056-.125.125-.125s.125.056.125.125v1c0 .069-.056.125-.125.125zm-21.663-.125c-.069 0-.125-.056-.125-.125v-.875c0-.069.056-.125.125-.125s.125.056.125.125v.875c0 .069-.056.125-.125.125z"/></g><g><path d="m59 10.5h-25.663c-.276 0-.5-.224-.5-.5v-1c0-2.481 2.019-4.5 4.5-4.5h17.663c2.481 0 4.5 2.019 4.5 4.5v1c0 .276-.224.5-.5.5zm-25.163-1h24.663v-.5c0-1.93-1.57-3.5-3.5-3.5h-17.663c-1.93 0-3.5 1.57-3.5 3.5z"/></g><g><path d="m54 17.17h-5.196c-.276 0-.5-.224-.5-.5v-3.438c0-.276.224-.5.5-.5h5.196c.276 0 .5.224.5.5v3.438c0 .276-.224.5-.5.5zm-4.696-1h4.196v-2.438h-4.196z"/></g><g><path d="m54.92 59.5h-10.707c-1.208 0-2.328-.483-3.157-1.362-.828-.878-1.245-2.025-1.174-3.23l.958-16.268c.075-1.276 1.136-2.276 2.415-2.276h12.624c1.279 0 2.339 1 2.415 2.276l.957 16.268c.071 1.205-.346 2.353-1.174 3.23-.829.879-1.95 1.362-3.157 1.362zm-11.666-22.137c-.75 0-1.373.586-1.417 1.335l-.957 16.268c-.055.927.266 1.81.904 2.486.637.676 1.5 1.048 2.429 1.048h10.707c.929 0 1.791-.372 2.428-1.048.638-.676.958-1.56.904-2.486l-.957-16.268c-.044-.748-.667-1.335-1.417-1.335z"/></g><g><path d="m54.92 59.5h-10.707c-1.208 0-2.328-.483-3.157-1.362-.828-.878-1.245-2.025-1.174-3.23l.043-.734c.015-.265.234-.471.499-.471h18.283c.265 0 .484.206.499.471l.043.734c.071 1.205-.346 2.353-1.174 3.23-.827.879-1.948 1.362-3.155 1.362zm-14.024-4.798-.016.264c-.055.927.266 1.81.904 2.486.637.676 1.5 1.048 2.429 1.048h10.707c.929 0 1.791-.372 2.428-1.048.638-.676.958-1.56.904-2.486l-.016-.264z"/></g><g><path d="m52.368 41.013c-.276 0-.5-.224-.5-.5v-5.063c0-1.27-1.032-2.302-2.301-2.302s-2.301 1.032-2.301 2.302v5.063c0 .276-.224.5-.5.5s-.5-.224-.5-.5v-5.063c0-1.82 1.481-3.302 3.301-3.302s3.301 1.481 3.301 3.302v5.063c0 .276-.224.5-.5.5z"/></g><g><path d="m20.964 38.92h-2.189c-.25 0-.461-.185-.495-.432l-2.608-18.81h-4.386c-.276 0-.5-.224-.5-.5s.224-.5.5-.5h4.821c.25 0 .461.185.495.432l2.608 18.81h1.754c.276 0 .5.224.5.5s-.223.5-.5.5z"/></g><g><path d="m31.536 34.786h-13.332c-.276 0-.5-.224-.5-.5s.224-.5.5-.5h12.899l1.463-10.138h-15.908c-.276 0-.5-.224-.5-.5s.224-.5.5-.5h16.485c.145 0 .283.063.378.173.095.109.138.255.117.398l-1.607 11.138c-.036.247-.247.429-.495.429z"/></g><g><path d="m32.603 27.392h-15.426c-.276 0-.5-.224-.5-.5s.224-.5.5-.5h15.426c.276 0 .5.224.5.5s-.224.5-.5.5z"/></g><g><path d="m32.076 31.042h-14.393c-.276 0-.5-.224-.5-.5s.224-.5.5-.5h14.393c.276 0 .5.224.5.5s-.224.5-.5.5z"/></g><g><path d="m22.548 40.504c-1.149 0-2.084-.935-2.084-2.084s.935-2.084 2.084-2.084 2.084.935 2.084 2.084-.935 2.084-2.084 2.084zm0-3.168c-.598 0-1.084.486-1.084 1.084s.486 1.084 1.084 1.084 1.084-.486 1.084-1.084-.486-1.084-1.084-1.084z"/></g><g><path d="m28.115 40.504c-1.149 0-2.084-.935-2.084-2.084s.935-2.084 2.084-2.084 2.084.935 2.084 2.084-.935 2.084-2.084 2.084zm0-3.168c-.598 0-1.084.486-1.084 1.084s.486 1.084 1.084 1.084 1.084-.486 1.084-1.084-.487-1.084-1.084-1.084z"/></g><g><path d="m26.531 38.92h-2.398c-.276 0-.5-.224-.5-.5s.224-.5.5-.5h2.398c.276 0 .5.224.5.5s-.224.5-.5.5z"/></g><g><g><path d="m38.647 31.911h-2.076c-.276 0-.5-.224-.5-.5s.224-.5.5-.5h2.076c.677 0 1.228-.551 1.228-1.228 0-.76-.551-1.317-1.228-1.317h-.348c-1.229 0-2.228-.999-2.228-2.228s1-2.228 2.228-2.228h2.076c.276 0 .5.224.5.5s-.224.5-.5.5h-2.076c-.677 0-1.228.551-1.228 1.228s.551 1.228 1.228 1.228h.348c1.229 0 2.228 1.006 2.228 2.242 0 1.304-1 2.303-2.228 2.303z"/></g><g><path d="m38.473 32.764c-.276 0-.5-.224-.5-.5v-8.705c0-.276.224-.5.5-.5s.5.224.5.5v8.705c0 .276-.223.5-.5.5z"/></g></g><g><path d="m47.768 26.897h-4.447c-.276 0-.5-.224-.5-.5s.224-.5.5-.5h4.447c.276 0 .5.224.5.5s-.224.5-.5.5z"/></g><g><path d="m50.554 29.924h-7.232c-.276 0-.5-.224-.5-.5s.224-.5.5-.5h7.232c.276 0 .5.224.5.5s-.224.5-.5.5z"/></g><g><g><path d="m56.704 54.327c-.066 0-.121-.051-.125-.117l-.029-.499c-.004-.069.049-.129.118-.133.062.003.128.049.132.117l.029.5c.004.068-.049.128-.118.132-.002 0-.004 0-.007 0z"/></g><g><path d="m56.619 52.872c-.066 0-.121-.051-.125-.117l-.056-.956c-.004-.069.049-.129.118-.133.064.001.128.048.132.117l.056.956c.004.069-.049.129-.118.133-.002 0-.005 0-.007 0zm-.113-1.912c-.066 0-.121-.051-.125-.117l-.056-.956c-.004-.069.049-.129.118-.133.067-.001.128.048.132.117l.056.956c.004.069-.049.129-.118.133-.002 0-.004 0-.007 0zm-.112-1.912c-.066 0-.121-.051-.125-.117l-.057-.956c-.004-.069.049-.129.118-.133.071-.003.127.048.132.117l.057.956c.004.069-.049.129-.118.133-.002 0-.005 0-.007 0zm-.113-1.912c-.066 0-.121-.051-.125-.117l-.056-.957c-.004-.069.049-.129.118-.133.06-.005.128.048.132.117l.056.956c.004.069-.049.129-.118.133-.002.001-.004.001-.007.001zm-.112-1.912c-.066 0-.121-.051-.125-.117l-.056-.956c-.004-.069.049-.129.118-.133.063-.007.128.048.132.117l.056.956c.004.069-.049.129-.118.133-.002 0-.005 0-.007 0zm-.112-1.912c-.066 0-.121-.051-.125-.117l-.056-.956c-.004-.069.049-.129.118-.133.066-.009.128.048.132.117l.056.956c.004.069-.049.129-.118.133-.002 0-.005 0-.007 0zm-.113-1.913c-.066 0-.121-.051-.125-.117l-.057-.956c-.004-.069.049-.129.118-.133.069.003.127.049.132.117l.057.956c.004.069-.049.129-.118.133-.002 0-.004 0-.007 0z"/></g><g><path d="m55.832 39.487c-.066 0-.121-.051-.125-.117l-.022-.382h-.382c-.069 0-.125-.056-.125-.125s.056-.125.125-.125h.618l.037.617c.004.068-.049.128-.118.132-.004 0-.006 0-.008 0z"/></g><g><path d="m54.259 38.988h-1.043c-.069 0-.125-.056-.125-.125s.056-.125.125-.125h1.043c.069 0 .125.056.125.125s-.056.125-.125.125zm-2.085 0h-1.043c-.069 0-.125-.056-.125-.125s.056-.125.125-.125h1.043c.069 0 .125.056.125.125s-.056.125-.125.125zm-2.086 0h-1.043c-.069 0-.125-.056-.125-.125s.056-.125.125-.125h1.043c.069 0 .125.056.125.125s-.056.125-.125.125zm-2.086 0h-1.043c-.069 0-.125-.056-.125-.125s.056-.125.125-.125h1.043c.069 0 .125.056.125.125s-.056.125-.125.125zm-2.085 0h-1.043c-.069 0-.125-.056-.125-.125s.056-.125.125-.125h1.043c.069 0 .125.056.125.125s-.057.125-.125.125z"/></g><g><path d="m43.302 39.487c-.002 0-.005 0-.007 0-.069-.004-.122-.063-.118-.132l.037-.617h.618c.069 0 .125.056.125.125s-.056.125-.125.125h-.382l-.022.382c-.005.067-.06.117-.126.117z"/></g><g><path d="m42.514 52.872c-.002 0-.005 0-.007 0-.069-.004-.122-.063-.118-.133l.056-.956c.004-.069.065-.116.132-.117.069.004.122.063.118.133l-.056.956c-.004.066-.059.117-.125.117zm.112-1.912c-.002 0-.005 0-.007 0-.069-.004-.122-.063-.118-.133l.056-.956c.004-.069.062-.118.132-.117.069.004.122.063.118.133l-.056.956c-.003.066-.059.117-.125.117zm.113-1.912c-.002 0-.005 0-.007 0-.069-.004-.122-.063-.118-.133l.056-.956c.004-.069.059-.12.132-.117.069.004.122.063.118.133l-.056.956c-.004.066-.059.117-.125.117zm.113-1.912c-.002 0-.005 0-.007 0-.069-.004-.122-.063-.118-.133l.056-.956c.004-.069.056-.122.132-.117.069.004.122.063.118.133l-.056.956c-.004.066-.06.117-.125.117zm.112-1.912c-.002 0-.005 0-.007 0-.069-.004-.122-.063-.118-.133l.056-.956c.004-.069.066-.124.132-.117.069.004.122.063.118.133l-.056.956c-.004.066-.059.117-.125.117zm.113-1.912c-.002 0-.005 0-.007 0-.069-.004-.122-.063-.118-.133l.056-.956c.004-.069.063-.126.132-.117.069.004.122.063.118.133l-.056.956c-.004.066-.059.117-.125.117zm.112-1.913c-.002 0-.005 0-.007 0-.069-.004-.122-.063-.118-.133l.056-.956c.004-.068.06-.114.132-.117.069.004.122.063.118.133l-.056.956c-.003.067-.059.117-.125.117z"/></g><g><path d="m42.429 54.327c-.002 0-.005 0-.007 0-.069-.004-.122-.063-.118-.132l.029-.5c.004-.068.054-.114.132-.117.069.004.122.063.118.133l-.029.499c-.004.066-.059.117-.125.117z"/></g></g></g></svg>