<svg id="Redesign_Web" viewBox="0 0 96 96" xmlns="http://www.w3.org/2000/svg" data-name="Redesign Web"><path d="m87 7h-78c-2.757 0-5 2.243-5 5 .036 5.284-.026 46.661 0 53 0 2.757 2.243 5 5 5h78c2.757 0 5-2.243 5-5 .026-6.573-.019-47.49 0-53 0-2.757-2.243-5-5-5zm-63 6.5c1.972.034 1.971 2.967 0 3-1.972-.034-1.971-2.967 0-3zm-6 0c1.972.034 1.971 2.967 0 3-1.972-.034-1.971-2.967 0-3zm-6 0c1.972.034 1.971 2.967 0 3-1.972-.034-1.971-2.967 0-3zm78 51.5c0 1.654-1.346 3-3 3h-78c-1.654 0-3-1.346-3-3v-43h84z"/><path d="m30 41h32c.342 0 .677.035 1 .101v-12.101c0-1.654-1.346-3-3-3h-2c-1.654 0-3 1.346-3 3v1c0 .551-.449 1-1 1h-7c-.551 0-1-.449-1-1v-1.5c-.146-4.624-6.854-4.625-7 0v2c0 .827-.673 1.5-1.5 1.5s-1.5-.673-1.5-1.5v-1c-.143-4.622-6.855-4.626-7 0v11.601c.323-.066.658-.101 1-.101z"/><path d="m66 48h-1v-2c0-1.654-1.346-3-3-3h-32c-1.654 0-3 1.346-3 3v6c0 1.654 1.346 3 3 3h32c1.654 0 3-1.346 3-3v-2h1c1.103 0 2 .897 2 2v8c0 1.103-.897 2-2 2h-16c-2.206 0-4 1.794-4 4v7h-1c-1.103 0-2 .897-2 2v11c0 1.654 1.346 3 3 3h2c1.654 0 3-1.346 3-3v-11c0-1.103-.897-2-2-2h-1v-7c0-1.103.897-2 2-2h16c2.206 0 4-1.794 4-4v-8c0-2.206-1.794-4-4-4z"/><path d="m19 28h-7c-1.312-.022-1.316-1.978 0-2h7c1.312.022 1.316 1.978 0 2z"/><path d="m19 32h-7c-1.312-.022-1.316-1.978 0-2h7c1.312.022 1.316 1.978 0 2z"/></svg>