<svg id="&#x421;&#x43B;&#x43E;&#x439;_1" enable-background="new 0 0 16 16" viewBox="0 0 16 16" xmlns="http://www.w3.org/2000/svg"><g fill="rgb(0,0,0)"><path d="m15.5 7.375c.2070313 0 .375-.1679688.375-.375s-.1679687-.375-.375-.375h-1.125v-1.25h1.125c.2070313 0 .375-.1679688.375-.375s-.1679687-.375-.375-.375h-1.125v-2.625c0-.2070313-.1679688-.375-.375-.375h-2.625v-1.125c0-.2070313-.1679688-.375-.375-.375s-.375.1679688-.375.375v1.125h-1.25v-1.125c0-.2070313-.1679688-.375-.375-.375s-.375.1679688-.375.375v1.125h-1.25v-1.125c0-.2070313-.1679688-.375-.375-.375s-.375.1679688-.375.375v1.125h-1.25v-1.125c0-.2070313-.1679688-.375-.375-.375s-.375.1679688-.375.375v1.125h-2.625c-.2070312 0-.375.1679688-.375.375v2.625h-1.125c-.2070312 0-.375.1679688-.375.375s.1679688.375.375.375h1.125v1.25h-1.125c-.2070312 0-.375.1679688-.375.375s.1679688.375.375.375h1.125v1.25h-1.125c-.2070312 0-.375.1679688-.375.375s.1679688.375.375.375h1.125v1.25h-1.125c-.2070313 0-.375.1679688-.375.375s.1679688.375.375.375h1.125v2.625c0 .2070313.1679688.375.375.375h2.625v1.125c0 .2070313.1679688.375.375.375s.375-.1679688.375-.375v-1.125h1.25v1.125c0 .2070313.1679688.375.375.375s.375-.1679688.375-.375v-1.125h1.25v1.125c0 .2070313.1679688.375.375.375s.375-.1679688.375-.375v-1.125h1.25v1.125c0 .2070313.1679688.375.375.375s.375-.1679688.375-.375v-1.125h2.625c.2070313 0 .375-.1679688.375-.375v-2.625h1.125c.2070313 0 .375-.1679688.375-.375s-.1679688-.375-.375-.375h-1.125v-1.25h1.125c.2070313 0 .375-.1679688.375-.375s-.1679687-.375-.375-.375h-1.125v-1.25zm-1.875 6.25h-11.25v-11.25h11.25z"/><path d="m7.8579102 5.8881836c-.0488282-.1567383-.1938477-.2631836-.3579102-.2631836h-.5c-.1640625 0-.309082.1064453-.3579102.2631836l-1.25 4c-.0620117.1977539.0483398.4082031.2460938.4697266.1958008.0615234.4072266-.0483398.4697266-.2460938l.2302246-.7368164h1.8237305l.2302246.7368164c.0502929.1606445.1982421.2631836.3579101.2631836.0371094 0 .074707-.0053711.1118164-.0170898.1977539-.0615234.3081055-.2719727.2460938-.4697266zm-1.2854004 2.7368164.6774902-2.1679687.6774902 2.1679687z"/><path d="m10.25 5.625c-.2070313 0-.375.1679688-.375.375v4c0 .2070313.1679688.375.375.375s.375-.1679688.375-.375v-4c0-.2070312-.1679687-.375-.375-.375z"/></g></svg>