<svg enable-background="new 0 0 100 100" height="512" viewBox="0 0 100 100" width="512" xmlns="http://www.w3.org/2000/svg"><g id="Layer_35"><g><g><path d="m33.6 15.5c.8 0 1.5-.7 1.5-1.5s-.7-1.5-1.5-1.5-1.5.7-1.5 1.5c0 .9.7 1.5 1.5 1.5z"/><path d="m25.2 15.5c.8 0 1.5-.7 1.5-1.5s-.7-1.5-1.5-1.5-1.5.7-1.5 1.5c0 .9.7 1.5 1.5 1.5z"/><path d="m16.9 15.5c.8 0 1.5-.7 1.5-1.5s-.7-1.5-1.5-1.5-1.5.7-1.5 1.5c0 .9.6 1.5 1.5 1.5z"/><path d="m89.3 5h-78.6c-3.1 0-5.7 2.6-5.7 5.7v78.6c0 3.1 2.6 5.7 5.7 5.7h78.6c3.1 0 5.7-2.6 5.7-5.7v-78.6c0-3.1-2.6-5.7-5.7-5.7zm-78.6 3h78.6c1.5 0 2.7 1.2 2.7 2.7v9.4h-84v-9.4c0-1.5 1.2-2.7 2.7-2.7zm78.6 84h-78.6c-1.5 0-2.7-1.2-2.7-2.7v-66.2h84v66.2c0 1.5-1.2 2.7-2.7 2.7z"/><path d="m54.5 15.5h28.7c.8 0 1.5-.7 1.5-1.5s-.7-1.5-1.5-1.5h-28.7c-.8 0-1.5.7-1.5 1.5s.7 1.5 1.5 1.5z"/><path d="m85.7 27.9h-71.4c-.8 0-1.5.7-1.5 1.5v30.8c0 .8.7 1.5 1.5 1.5h71.4c.8 0 1.5-.7 1.5-1.5v-30.8c0-.9-.7-1.5-1.5-1.5zm-16.4 30.8-3.5-4.2 6.6-8 10.1 12.2zm-3.9 0h-31.8l15.9-19.2zm-49.6-27.8h68.4v25.1l-10.6-12.9c-.3-.3-.7-.5-1.2-.5s-.9.2-1.2.5l-7.4 9-13.2-16c-.3-.3-.7-.5-1.2-.5s-.9.2-1.2.5l-18.5 22.6h-13.9z"/><path d="m85.7 84.2h-16.9c-.8 0-1.5.7-1.5 1.5s.7 1.5 1.5 1.5h16.9c.8 0 1.5-.7 1.5-1.5s-.7-1.5-1.5-1.5z"/><path d="m58.4 84.2h-16.9c-.8 0-1.5.7-1.5 1.5s.7 1.5 1.5 1.5h16.9c.8 0 1.5-.7 1.5-1.5s-.6-1.5-1.5-1.5z"/><path d="m31.2 84.2h-16.9c-.8 0-1.5.7-1.5 1.5s.7 1.5 1.5 1.5h16.9c.8 0 1.5-.7 1.5-1.5s-.7-1.5-1.5-1.5z"/><path d="m31.2 66.5h-16.9c-.8 0-1.5.7-1.5 1.5v9c0 .8.7 1.5 1.5 1.5h16.9c.8 0 1.5-.7 1.5-1.5v-9c0-.9-.7-1.5-1.5-1.5zm-1.5 8.9h-13.9v-6h13.9z"/><path d="m58.4 66.5h-16.9c-.8 0-1.5.7-1.5 1.5v9c0 .8.7 1.5 1.5 1.5h16.9c.8 0 1.5-.7 1.5-1.5v-9c0-.9-.6-1.5-1.5-1.5zm-1.5 8.9h-13.9v-6h13.9z"/><path d="m85.7 66.5h-16.9c-.8 0-1.5.7-1.5 1.5v9c0 .8.7 1.5 1.5 1.5h16.9c.8 0 1.5-.7 1.5-1.5v-9c0-.9-.7-1.5-1.5-1.5zm-1.5 8.9h-13.9v-6h13.9z"/><path d="m33.7 41.9c0-3.5-2.8-6.4-6.3-6.4s-6.4 2.8-6.4 6.4c0 3.5 2.8 6.3 6.4 6.3 3.4.1 6.3-2.8 6.3-6.3zm-9.7 0c0-1.8 1.5-3.4 3.4-3.4 1.8 0 3.3 1.5 3.3 3.4 0 1.8-1.5 3.3-3.3 3.3-1.9.1-3.4-1.4-3.4-3.3z"/></g></g></g></svg>