<svg id="Layer_1" enable-background="new 0 0 500 500" viewBox="0 0 500 500" xmlns="http://www.w3.org/2000/svg"><path clip-rule="evenodd" d="m123.086 282.662c3.562 0 6.959 1.529 9.309 4.19 2.712 3.096 7.399 3.095 10.108 0 7.373-8.425 21.694-3.299 21.694 8.155 0 13.024-13.817 29.333-26.751 36.354-12.922-7.022-26.739-23.33-26.739-36.354.001-6.796 5.55-12.345 12.379-12.345zm11.648 62.346c1.836.72 3.597.766 5.431 0 18.087-7.984 37.47-29.956 37.47-50.001 0-20.502-22.987-32.964-40.188-21.405-17.197-11.557-40.177.897-40.177 21.405 0 20.045 19.372 42.017 37.464 50.001zm154.62-222.884 35.454 20.499-35.454 20.442zm-10.079 58.439c2.051 1.12 4.688 1.14 6.722 0l55.613-32.164c4.491-2.584 4.453-9.049 0-11.609l-55.613-32.107c-4.445-2.551-10.085.634-10.085 5.776v64.271c-.001 2.379 1.284 4.588 3.363 5.833zm-12.385-93.774c-30.76 17.781-41.343 57.25-23.585 87.998 17.77 30.805 57.25 41.394 88.021 23.613 30.806-17.799 41.398-57.157 23.58-87.998-17.805-30.816-57.191-41.408-88.016-23.613zm32.346 133.64c34.871 0 65.862-23.314 75.087-57.703 11.141-41.529-13.512-84.234-55.059-95.36-20.091-5.38-41.077-2.605-59.096 7.814-37.187 21.462-49.973 69.198-28.5 106.346 14.406 24.973 40.636 38.903 67.568 38.903zm157.145-18.687-12.854 12.854-31.145-31.145 12.854-12.854c2.616-2.605 6.863-2.605 9.474 0l21.671 21.688c2.611 2.605 2.611 6.852 0 9.457zm-30.697 198.534-70.042-78.825-42.85 42.866c-.94.963-2.129 1.586-3.432 1.869l-50.806 10.136c-5.044.828-8.802-3.448-7.911-7.928l9.91-49.492h-46.621c-6.852 35.958-38.54 63.252-76.486 63.252-20.414 0-39.01-7.928-52.912-20.839l-34.622 38.959h375.772zm8.244 26.331h-392.26v-12.911h392.26zm-296.481-186.755c-35.528 0-64.424 28.88-64.424 64.385 0 35.562 28.897 64.441 64.424 64.441 35.528 0 64.436-28.88 64.436-64.441 0-35.506-28.909-64.385-64.436-64.385zm134.075 92.698 22.894 22.877-28.614 5.719zm36.525 17.498-31.139-31.145 125.972-125.938 31.139 31.145zm157.836-167.276-21.665-21.688c-7.86-7.871-20.629-7.871-28.478 0l-144.359 144.342h-56.078c.011-.396.017-.793.017-1.189 0-42.923-34.933-77.862-77.873-77.862-42.934 0-77.868 34.939-77.868 77.862 0 17.667 5.918 33.976 15.872 47.114l-45.522 51.191c-.261 0-1.261 1.893-1.495 2.831l-.204 1.642v26.331c0 3.737 3.012 6.739 6.721 6.739h405.699c3.709 0 6.722-3.001 6.722-6.739 0-3.561.187-26.039-.13-27.634-.279-1.399-.676-1.993-1.484-3.058-.029-.057-.057-.113-.085-.113l-80.512-90.603 100.722-100.683c7.849-7.871 7.849-20.669 0-28.483zm-341.608-41.904c0-3.681 3.013-6.682 6.722-6.682h.787c3.709 0 6.722 3.001 6.722 6.682 0 3.738-3.013 6.739-6.722 6.739h-.787c-3.709 0-6.722-3.002-6.722-6.739zm-35.267 0c0-3.681 3.001-6.682 6.722-6.682h.776c3.721 0 6.722 3.001 6.722 6.682 0 3.738-3.001 6.739-6.722 6.739h-.776c-3.721 0-6.722-3.002-6.722-6.739zm70.546 0c0-3.681 3.013-6.682 6.722-6.682h.787c3.709 0 6.721 3.001 6.721 6.682 0 3.738-3.012 6.739-6.721 6.739h-.787c-3.71 0-6.722-3.002-6.722-6.739zm-36.038-66.99c35.168-4.452 67.186 20.58 71.531 55.721 1.806 14.61-1.484 29.503-9.275 41.904-.968 1.585-1.263 3.454-.816 5.209l6.71 26.558-18.817-11.609c-2.243-1.396-4.906-1.336-7.129.057-8.041 5.096-16.932 8.268-26.445 9.457-35.098 4.36-67.194-20.669-71.537-55.778-4.348-35.108 20.67-67.215 55.778-71.519zm7.821 141.228c-38.563 0-72.075-28.823-76.945-68.066-5.249-42.47 25.012-81.26 67.466-86.526 42.551-5.276 81.262 24.892 86.532 67.443 2.067 16.705-1.382 33.693-9.711 48.189l10.085 39.922c1.476 5.837-4.917 10.547-10.045 7.362l-29.457-18.177c-11.411 6.424-24.761 9.853-37.925 9.853z" fill-rule="evenodd"/></svg>