<svg id="Capa_1" enable-background="new 0 0 512 512" height="512" viewBox="0 0 512 512" width="512" xmlns="http://www.w3.org/2000/svg"><g><path d="m338.456 59.73c-.034.01-5.726 1.772-15.333 4.746-1.603-5.207-3.967-11.604-7.337-18.03-10.866-20.726-26.771-31.697-45.997-31.725-.022 0-.042 0-.065 0-1.333 0-2.661.126-3.99.246-.565-.68-1.136-1.355-1.738-1.999-8.37-8.959-19.118-13.323-31.983-12.946-24.834.712-49.554 18.644-69.604 50.49-14.114 22.414-24.836 50.57-27.886 72.363-28.508 8.828-48.455 15.005-48.886 15.141-14.39 4.516-14.842 4.968-16.729 18.526-1.429 10.264-39.078 301.432-39.078 301.432l312.407 54.026v-452.909c-1.541.098-2.918.385-3.781.639zm-72.139 22.335c-16.532 5.119-34.581 10.708-52.685 16.314 5.097-19.499 14.746-38.912 26.602-51.632 4.411-4.731 10.581-10.01 17.887-13.025 6.873 14.323 8.362 34.627 8.196 48.343zm-33.827-65.521c5.83-.122 10.741 1.157 14.934 3.917-6.707 3.482-13.196 8.489-19.281 15.015-15.773 16.92-27.854 43.191-32.672 68.526-15.036 4.656-29.742 9.209-43.271 13.399 8.534-39.899 41.966-99.755 80.29-100.857zm-48.317 227.226c1.678 26.577 71.594 32.384 75.525 94.633 3.092 48.975-25.976 82.474-67.862 85.12-50.263 3.173-77.939-26.485-77.939-26.485l10.65-45.313s27.852 21.015 50.148 19.607c14.563-.92 19.768-12.764 19.239-21.141-2.189-34.668-59.122-32.626-62.719-89.591-3.027-47.943 28.454-96.512 97.92-100.898 26.766-1.69 40.471 5.144 40.471 5.144l-15.886 59.424s-17.719-8.068-38.726-6.742c-30.802 1.943-31.129 21.373-30.821 26.242zm98.652-166.816c-.183-12.574-1.685-30.064-7.543-45.183 18.841 3.57 28.118 24.888 32.033 37.6-7.26 2.248-15.531 4.808-24.49 7.583z"/><path d="m352.568 510.765 129.601-32.214s-55.8-377.268-56.154-379.855c-.354-2.588-2.621-4.019-4.49-4.175s-38.354-.711-38.354-.711-22.246-21.605-30.604-29.778v446.733z"/></g></svg>