<svg id="Solid" height="512" viewBox="0 0 512 512" width="512" xmlns="http://www.w3.org/2000/svg"><path d="m312 248a48.069 48.069 0 0 0 47.321-40h-94.642a48.069 48.069 0 0 0 47.321 40z"/><path d="m424 248c40.74 0 53.139-20.222 55.527-40h-102.848a48.069 48.069 0 0 0 47.321 40z"/><path d="m477.475 192-35.556-128h-73.463l7.112 128z"/><path d="m88 248a48.07 48.07 0 0 0 47.321-40h-102.874c3.011 26.544 21.653 40 55.553 40z"/><path d="m143.544 64h-73.463l-35.556 128h101.907z"/><path d="m352.432 64h-88.432v128h95.544z"/><path d="m248 64h-88.432l-7.112 128h95.544z"/><path d="m88 264a108.029 108.029 0 0 1 -24-2.51v162.51a24.027 24.027 0 0 0 24 24h336a24.027 24.027 0 0 0 24-24v-162.51a107.48 107.48 0 0 1 -24 2.51 64.055 64.055 0 0 1 -56-33.038 63.98 63.98 0 0 1 -112 0 63.98 63.98 0 0 1 -112 0 64.055 64.055 0 0 1 -56 33.038zm271.738 24c4.256-.241 37.691-.88 62.839 35.446a8 8 0 1 1 -13.154 9.108c-20.864-30.137-47.684-28.653-48.815-28.577-.22.018-.386.023-.608.023a56 56 0 1 0 55.431 64h-47.431a8 8 0 0 1 0-16h56a8 8 0 0 1 8 8 72 72 0 1 1 -72.262-72z"/><path d="m200 248a48.07 48.07 0 0 0 47.321-40h-94.642a48.07 48.07 0 0 0 47.321 40z"/></svg>