<?xml version="1.0" encoding="iso-8859-1"?>
<!-- Generator: Adobe Illustrator 19.0.0, SVG Export Plug-In . SVG Version: 6.00 Build 0)  -->
<svg version="1.1" id="Capa_1" xmlns="http://www.w3.org/2000/svg" xmlns:xlink="http://www.w3.org/1999/xlink" x="0px" y="0px"
	 viewBox="0 0 512 512" style="enable-background:new 0 0 512 512;" xml:space="preserve">
<g>
	<g>
		<path d="M475.854,243.865h-21.563c-6.219,0-11.278,5.06-11.278,11.278v10.175l-47.463,0.015v-10.223
			c-0.001-6.2-5.046-11.245-11.246-11.245h-22.625c-5.811,0-10.54,4.729-10.54,10.54v209.868c0,5.812,4.729,10.54,10.54,10.54
			h114.176c5.812,0,10.54-4.729,10.54-10.54V254.405C486.394,248.593,481.666,243.865,475.854,243.865z M471.394,459.812H366.139
			V258.866h14.409v6.468c0,8.263,6.723,14.985,14.985,14.985h47.915v0c8.029,0,14.563-6.532,14.563-14.562v-6.892h13.382V459.812z"
			/>
	</g>
</g>
<g>
	<g>
		<path d="M424.828,242.838H413.36c-4.143,0-7.5,3.357-7.5,7.5c0,4.143,3.357,7.5,7.5,7.5h11.468c4.143,0,7.5-3.357,7.5-7.5
			C432.328,246.195,428.971,242.838,424.828,242.838z"/>
	</g>
</g>
<g>
	<g>
		<path d="M239.218,369.862c-0.09-0.48-0.24-0.949-0.42-1.409c-0.19-0.45-0.42-0.881-0.69-1.29c-0.28-0.41-0.59-0.79-0.939-1.141
			c-0.341-0.34-0.73-0.66-1.141-0.93c-0.399-0.27-0.84-0.5-1.29-0.69c-0.45-0.189-0.93-0.33-1.399-0.43
			c-0.971-0.19-1.971-0.19-2.94,0c-0.47,0.1-0.95,0.24-1.4,0.43c-0.449,0.19-0.89,0.42-1.29,0.69c-0.409,0.27-0.8,0.59-1.14,0.93
			c-0.35,0.351-0.66,0.73-0.939,1.141c-0.27,0.409-0.5,0.84-0.681,1.29c-0.189,0.46-0.34,0.93-0.43,1.409
			c-0.1,0.48-0.15,0.98-0.15,1.46c0,0.49,0.051,0.99,0.15,1.471c0.089,0.479,0.239,0.949,0.428,1.399
			c0.181,0.46,0.41,0.891,0.681,1.301c0.279,0.409,0.59,0.789,0.939,1.14c0.34,0.34,0.73,0.66,1.14,0.93
			c0.4,0.271,0.841,0.5,1.29,0.69c0.45,0.189,0.931,0.33,1.4,0.43c0.49,0.09,0.98,0.14,1.47,0.14c0.49,0,0.981-0.05,1.471-0.14
			c0.47-0.1,0.949-0.24,1.399-0.43c0.45-0.19,0.891-0.42,1.29-0.69c0.41-0.27,0.8-0.59,1.141-0.93c1.399-1.4,2.199-3.33,2.199-5.311
			C239.367,370.842,239.317,370.342,239.218,369.862z"/>
	</g>
</g>
<g>
	<g>
		<path d="M421.152,431.244c-4.593-0.911-8.96,2.594-8.96,7.359c0,4.228,3.481,7.5,7.5,7.5c4.014,0,7.5-3.284,7.5-7.5
			C427.192,435.156,424.822,432.005,421.152,431.244z"/>
	</g>
</g>
<g>
	<g>
		<path d="M447.836,367.757h-56.29c-4.143,0-7.5,3.357-7.5,7.5c0,4.143,3.357,7.5,7.5,7.5h56.29c4.142,0,7.5-3.357,7.5-7.5
			C455.336,371.114,451.979,367.757,447.836,367.757z"/>
	</g>
</g>
<g>
	<g>
		<path d="M447.836,401.646h-56.29c-4.143,0-7.5,3.357-7.5,7.5s3.357,7.5,7.5,7.5h56.29c4.142,0,7.5-3.357,7.5-7.5
			S451.979,401.646,447.836,401.646z"/>
	</g>
</g>
<g>
	<g>
		<path d="M447.836,299.98h-56.29c-4.143,0-7.5,3.357-7.5,7.5c0,4.143,3.357,7.5,7.5,7.5h56.29c4.142,0,7.5-3.357,7.5-7.5
			C455.336,303.337,451.978,299.98,447.836,299.98z"/>
	</g>
</g>
<g>
	<g>
		<path d="M447.836,333.868h-56.29c-4.143,0-7.5,3.357-7.5,7.5c0,4.143,3.357,7.5,7.5,7.5h56.29c4.142,0,7.5-3.357,7.5-7.5
			C455.336,337.226,451.979,333.868,447.836,333.868z"/>
	</g>
</g>
<g>
	<g>
		<path d="M294.159,156.284H170.79l-5.322-22.728c-0.795-3.392-3.819-5.79-7.303-5.79h-23.593c-4.143,0-7.5,3.357-7.5,7.5
			c0,4.141,3.358,7.499,7.5,7.499h17.646c0.791,3.357,21.726,92.144,21.768,92.325c0.002,0.007,0.002,0.015,0.004,0.022
			l4.339,18.058c0.589,2.449,1.744,4.63,3.295,6.437c-1.925,3.103-3.057,6.748-3.057,10.661c0,11.195,9.107,20.305,20.303,20.305
			c11.196,0,20.304-9.108,20.304-20.305c0-1.837-0.267-3.609-0.727-5.303h34.961c-0.459,1.694-0.727,3.466-0.727,5.303
			c0,11.195,9.107,20.305,20.304,20.305c11.195,0,20.304-9.108,20.304-20.305c0-10.176-7.533-18.602-17.31-20.057
			c-0.601-0.155-1.227-0.246-1.876-0.246h-80.809c-0.182,0-0.338-0.124-0.38-0.3l-2.115-8.805h90.414
			c3.452,0,6.458-2.356,7.283-5.708l16.14-65.611c0.016-0.063,0.03-0.127,0.044-0.191
			C306.148,162.634,301.032,156.284,294.159,156.284z M272.985,264.966c2.925,0,5.304,2.379,5.304,5.303
			c0,2.925-2.379,5.304-5.304,5.304c-2.924,0-5.303-2.379-5.303-5.304C267.683,267.345,270.062,264.966,272.985,264.966z
			 M198.871,264.966c2.925,0,5.304,2.379,5.304,5.303c0,2.925-2.379,5.304-5.304,5.304c-2.924,0-5.303-2.379-5.303-5.304
			C193.568,267.345,195.947,264.966,198.871,264.966z M275.334,225.86h-88.116l-12.897-54.577h114.44L275.334,225.86z"/>
	</g>
</g>
<g>
	<g>
		<path d="M76.514,70.156c-4.099,0-7.5,3.314-7.5,7.489c0,4.155,3.364,7.5,7.5,7.5c4.155,0,7.5-3.377,7.5-7.5
			C84.014,73.607,80.734,70.156,76.514,70.156z"/>
	</g>
</g>
<g>
	<g>
		<path d="M106.305,70.295c-4.685-0.92-8.97,2.689-8.97,7.35c0,4.032,3.263,7.5,7.5,7.5c4.157,0,7.5-3.367,7.5-7.5
			C112.335,74.184,109.949,71.052,106.305,70.295z"/>
	</g>
</g>
<g>
	<g>
		<path d="M134.645,70.295c-4.628-0.918-8.96,2.638-8.96,7.35c0,4.217,3.416,7.5,7.5,7.5c4.129,0,7.5-3.362,7.5-7.5
			C140.685,74.209,138.318,71.057,134.645,70.295z"/>
	</g>
</g>
<g>
	<g>
		<path d="M384.812,70.15H167.325c-4.143,0-7.5,3.357-7.5,7.5c0,4.143,3.358,7.5,7.5,7.5h217.487c4.143,0,7.5-3.357,7.5-7.5
			C392.312,73.507,388.955,70.15,384.812,70.15z"/>
	</g>
</g>
<g>
	<g>
		<path d="M349.207,11.58H36.526C16.385,11.579,0,27.964,0,48.106v191.859c0,4.143,3.357,7.5,7.5,7.5c4.142,0,7.5-3.357,7.5-7.5
			V48.106c0-11.869,9.656-21.526,21.526-21.526h312.681c4.143,0,7.5-3.358,7.5-7.5C356.707,14.937,353.35,11.58,349.207,11.58z"/>
	</g>
</g>
<g>
	<g>
		<path d="M504.5,399.146c4.143,0,7.5-3.357,7.5-7.5V251.793c0-18.491-15.043-33.535-33.535-33.535h-14.73V48.106
			c0-20.103-16.341-36.526-36.525-36.526c0,0,0,0-0.001,0h-43c-4.143,0-7.5,3.357-7.5,7.5c0,4.142,3.357,7.5,7.5,7.5h43
			c11.9,0,21.526,9.685,21.526,21.526v170.153h-14.34V53.167c0-6.875-5.593-12.453-12.453-12.453H41.794
			c-6.852,0-12.453,5.572-12.453,12.453v254.334c0,6.866,5.587,12.453,12.453,12.453h283.738v14.295H15v-59.283
			c0-4.143-3.358-7.5-7.5-7.5c-4.143,0-7.5,3.357-7.5,7.5v96.38c0,20.141,16.385,36.525,36.526,36.525h138.615l-3.628,30.69
			c-0.65,5.346-3.65,10.674-7.466,13.262l-6.34,4.301h-13.622c-12.212,0-22.148,9.936-22.148,22.149s9.936,22.148,22.148,22.148
			h175.564c6.999,0,13.246-3.267,17.307-8.352c5.908,5.193,13.644,8.352,22.11,8.352h119.399c18.491,0,33.535-15.043,33.535-33.535
			v-40.239c0-4.143-3.357-7.5-7.5-7.5c-4.143,0-7.5,3.357-7.5,7.5v40.239c0,10.22-8.314,18.534-18.534,18.534H359.067
			c-10.22,0-18.534-8.314-18.534-18.534c0-7.33,0-151.857,0-215.092c0-10.22,8.314-18.534,18.534-18.534
			c24.057,0,94.492,0,119.399,0c10.22,0,18.534,8.314,18.534,18.534v139.852C497,395.788,500.358,399.146,504.5,399.146z
			 M36.526,392.871c-11.869,0-21.526-9.656-21.526-21.524V349.25h310.531v43.621C310.499,392.871,48.036,392.871,36.526,392.871z
			 M325.532,407.871v49.052c-1.875-0.517-3.846-0.799-5.883-0.799h-13.621l-6.34-4.301c-3.817-2.589-6.817-7.921-7.464-13.244
			l-3.63-30.708H325.532z M283.269,456.124H180.467c3.13-4.587,5.249-10.08,5.938-15.761c0.001-0.008,0.002-0.016,0.003-0.023
			l3.838-32.47h83.241l3.841,32.491C278.018,446.043,280.138,451.536,283.269,456.124z M319.649,485.42H144.085
			c-3.941,0-7.148-3.206-7.148-7.147s3.206-7.148,7.148-7.148c38.792,0,136.49,0,175.564,0c3.941,0,7.147,3.206,7.147,7.148
			C326.797,482.214,323.591,485.42,319.649,485.42z M419.394,218.259h-60.326c-18.491,0-33.535,15.043-33.535,33.535v53.16H44.341
			V112.534h375.053V218.259z M419.394,97.534H44.341v-41.82h375.053V97.534z"/>
	</g>
</g>
<g>
</g>
<g>
</g>
<g>
</g>
<g>
</g>
<g>
</g>
<g>
</g>
<g>
</g>
<g>
</g>
<g>
</g>
<g>
</g>
<g>
</g>
<g>
</g>
<g>
</g>
<g>
</g>
<g>
</g>
</svg>
